HIERARCHY
ROOT Hips
{
	OFFSET 0.000000 0.000000 0.000000
	CHANNELS 6 Xposition Yposition Zposition Xrotation Yrotation Zrotation
	JOINT LeftUpLeg_virtual
	{
		OFFSET 0.000000 0.000000 0.000000
		CHANNELS 3 Xrotation Yrotation Zrotation
		JOINT LeftUpLeg
		{
			OFFSET 13.026900 -6.336304 -1.092800
			CHANNELS 3 Xrotation Yrotation Zrotation
			JOINT LeftLeg
			{
				OFFSET 0.524474 -46.096886 9.782700
				CHANNELS 3 Xrotation Yrotation Zrotation
				JOINT LeftFoot
				{
					OFFSET -0.524474 -53.427422 -12.948200
					CHANNELS 3 Xrotation Yrotation Zrotation
					JOINT LeftToeBase
					{
						OFFSET 0.192200 -14.009700 16.364100
						CHANNELS 3 Xrotation Yrotation Zrotation
						JOINT LeftToe_End
						{
							OFFSET -1.784700 -0.561700 9.474800
							CHANNELS 3 Xrotation Yrotation Zrotation
							End Site
							{
								OFFSET 0 0 0
							}
						}
					}
				}
			}
		}
	}
	JOINT RightUpLeg_virtual
	{
		OFFSET 0.000000 0.000000 0.000000
		CHANNELS 3 Xrotation Yrotation Zrotation
		JOINT RightUpLeg
		{
			OFFSET -12.883000 -6.336304 -1.092800
			CHANNELS 3 Xrotation Yrotation Zrotation
			JOINT RightLeg
			{
				OFFSET -0.524587 -46.096825 9.782800
				CHANNELS 3 Xrotation Yrotation Zrotation
				JOINT RightFoot
				{
					OFFSET 0.524587 -53.427383 -12.948300
					CHANNELS 3 Xrotation Yrotation Zrotation
					JOINT RightToeBase
					{
						OFFSET -0.192200 -14.009700 16.364100
						CHANNELS 3 Xrotation Yrotation Zrotation
						JOINT RightToe_End
						{
							OFFSET 1.784700 -0.561700 9.474800
							CHANNELS 3 Xrotation Yrotation Zrotation
							End Site
							{
								OFFSET 0 0 0
							}
						}
					}
				}
			}
		}
	}
	JOINT Spine_virtual
	{
		OFFSET 0.000000 0.000000 0.000000
		CHANNELS 3 Xrotation Yrotation Zrotation
		JOINT Spine
		{
			OFFSET 0.072000 7.257294 -0.789700
			CHANNELS 3 Xrotation Yrotation Zrotation
			JOINT Spine1
			{
				OFFSET 0.000000 12.508769 -0.658067
				CHANNELS 3 Xrotation Yrotation Zrotation
				JOINT Spine1_split
				{
					OFFSET 0.000000 12.508769 -0.658067
					CHANNELS 3 Xrotation Yrotation Zrotation
					JOINT Spine2
					{
						OFFSET 0.000000 12.508769 -0.658067
						CHANNELS 3 Xrotation Yrotation Zrotation
						JOINT Neck_virtual
						{
							OFFSET 0.000000 0.000000 0.000000
							CHANNELS 3 Xrotation Yrotation Zrotation
							JOINT Neck
							{
								OFFSET 0.000000 14.033295 7.520400
								CHANNELS 3 Xrotation Yrotation Zrotation
								JOINT Head
								{
									OFFSET 0.000000 8.198502 5.703100
									CHANNELS 3 Xrotation Yrotation Zrotation
									JOINT HeadTop_End
									{
										OFFSET 0.000000 17.760803 13.332701
										CHANNELS 3 Xrotation Yrotation Zrotation
										End Site
										{
											OFFSET 0 0 0
										}
									}
								}
							}
						}
						JOINT LeftShoulder_virtual
						{
							OFFSET 0.000000 0.000000 0.000000
							CHANNELS 3 Xrotation Yrotation Zrotation
							JOINT LeftShoulder
							{
								OFFSET 6.292450 5.785301 -0.669000
								CHANNELS 3 Xrotation Yrotation Zrotation
								JOINT LeftShoulder_split
								{
									OFFSET 6.292450 5.785301 -0.669000
									CHANNELS 3 Xrotation Yrotation Zrotation
									JOINT LeftArm
									{
										OFFSET 13.907140 -6.093903 1.965100
										CHANNELS 3 Xrotation Yrotation Zrotation
										JOINT LeftForeArm
										{
											OFFSET 34.140198 0.000000 0.000000
											CHANNELS 3 Xrotation Yrotation Zrotation
											JOINT LeftHand
											{
												OFFSET 40.960209 0.000000 0.000000
												CHANNELS 3 Xrotation Yrotation Zrotation
												End Site
												{
													OFFSET 0 0 0
												}
											}
										}
									}
								}
							}
						}
						JOINT RightShoulder_virtual
						{
							OFFSET 0.000000 0.000000 0.000000
							CHANNELS 3 Xrotation Yrotation Zrotation
							JOINT RightShoulder
							{
								OFFSET -6.292450 5.785301 -0.669000
								CHANNELS 3 Xrotation Yrotation Zrotation
								JOINT RightShoulder_split
								{
									OFFSET -6.292450 5.785301 -0.669000
									CHANNELS 3 Xrotation Yrotation Zrotation
									JOINT RightArm
									{
										OFFSET -13.907140 -6.093903 1.965100
										CHANNELS 3 Xrotation Yrotation Zrotation
										JOINT RightForeArm
										{
											OFFSET -34.140198 0.000000 0.000000
											CHANNELS 3 Xrotation Yrotation Zrotation
											JOINT RightHand
											{
												OFFSET -40.960209 0.000000 0.000000
												CHANNELS 3 Xrotation Yrotation Zrotation
												End Site
												{
													OFFSET 0 0 0
												}
											}
										}
									}
								}
							}
						}
					}
				}
			}
		}
	}
}
MOTION
Frames: 4
Frame Time: 0.03333333
0.188075 113.866302 2.978733 0.000000 0.000000 0.000000 1.821356 0.235546 0.338818 -7.154340 -2.168927 11.461752 13.971833 0.726019 -2.365179 -7.436434 12.016988 -7.141605 0.234445 0.059528 -1.248504 0.000000 0.000000 0.000000 2.966441 -1.195429 0.333421 -6.987121 -3.639046 -11.872926 14.578030 2.777352 1.325182 -5.122310 -12.028057 8.771331 -2.690701 0.191621 0.784272 0.000000 0.000000 0.000000 3.098345 -1.187331 -0.104118 3.052218 0.322505 1.604948 3.139129 0.091390 0.260414 0.838687 0.358879 0.122343 0.000000 0.000000 0.000000 2.790322 0.146967 0.020278 -2.804465 -0.059373 0.319811 -0.789171 -1.945809 2.148568 0.000000 0.000000 0.000000 2.635298 0.183539 0.219165 1.302164 9.509724 -13.267339 -0.250579 -2.169469 -0.864379 11.406361 -5.765618 -52.674200 -0.612336 -32.200015 0.869835 0.000000 0.000000 0.000000 2.585146 0.060669 0.250214 1.666218 -9.557934 11.793402 0.795857 1.999229 -1.847811 1.636116 18.214106 63.282311 2.125445 25.061100 0.350716 0.000000 0.000000 0.000000 
0.930718 113.716888 2.276012 0.000000 0.000000 0.000000 1.792129 -0.342681 0.490765 -7.311677 -2.230525 11.070477 13.998120 0.759070 -2.423969 -7.864110 11.539821 -7.299620 0.078875 0.055186 -1.222520 0.000000 0.000000 0.000000 2.862997 -1.342831 0.468499 -7.129493 -4.044640 -12.311536 14.330850 2.543069 1.343795 -5.124656 -11.973378 9.064021 -3.096440 0.159441 0.726995 0.000000 0.000000 0.000000 3.016576 -1.451085 -0.052700 3.123829 0.288097 1.648966 3.156350 0.056913 0.260149 0.989845 0.130047 0.059177 0.000000 0.000000 0.000000 2.826681 0.136117 0.012124 -2.824854 -0.031432 0.241854 -0.731138 -1.822409 2.020092 0.000000 0.000000 0.000000 2.698073 0.147538 0.210792 1.283264 9.292069 -13.212934 -0.306594 -1.950703 -0.828645 11.252030 -6.190234 -52.875575 -0.592927 -32.338545 0.887307 0.000000 0.000000 0.000000 2.640680 0.041864 0.266230 1.692938 -9.335128 11.846228 0.888012 2.047062 -1.942050 1.569016 18.200509 63.172420 2.137346 24.885231 0.395552 0.000000 0.000000 0.000000 
2.145303 113.469971 1.639538 0.000000 0.000000 0.000000 1.709367 -1.010195 0.621746 -7.883641 -2.313238 10.573415 14.917215 0.392238 -2.598495 -8.347123 10.276324 -7.626181 -0.170288 0.028953 -1.084247 0.000000 0.000000 0.000000 2.650740 -1.558151 0.612646 -6.996856 -4.185863 -13.005763 14.169137 2.316833 1.308174 -5.302092 -11.818569 9.638911 -3.202535 0.185085 0.595164 0.000000 0.000000 0.000000 2.983416 -1.764364 0.050491 3.241702 0.144797 1.620891 3.106535 -0.003183 0.245200 1.063692 0.056403 -0.019411 0.000000 0.000000 0.000000 2.798247 0.088478 0.002249 -2.788539 0.044087 0.110816 -0.631294 -1.660490 1.915295 0.000000 0.000000 0.000000 2.698987 0.088901 0.200708 1.252113 8.837140 -13.154955 -0.257728 -1.677645 -0.708068 11.074786 -6.958904 -53.171052 -0.492358 -32.333088 0.887250 0.000000 0.000000 0.000000 2.638348 -0.008539 0.287196 1.715069 -8.796861 12.099067 0.888301 2.016794 -2.106113 1.407820 18.207990 62.796377 2.090348 24.332190 0.428766 0.000000 0.000000 0.000000 
3.672484 113.128479 1.299145 0.000000 0.000000 0.000000 1.658247 -1.614756 0.705498 -8.811706 -2.383274 10.086966 16.463508 -0.096049 -2.838454 -8.904947 8.525834 -7.812546 -0.297744 -0.015157 -0.876946 0.000000 0.000000 0.000000 2.476074 -1.781217 0.698471 -6.682797 -4.072832 -13.855120 14.019575 2.132561 1.264015 -5.595583 -11.559001 10.401752 -3.001395 0.272781 0.385346 0.000000 0.000000 0.000000 2.997050 -2.078634 0.155957 3.390383 -0.091232 1.534210 2.990507 -0.075158 0.216113 0.997783 0.108111 -0.039494 0.000000 0.000000 0.000000 2.717265 0.015340 -0.009193 -2.685396 0.150439 -0.039575 -0.515007 -1.504617 1.879794 0.000000 0.000000 0.000000 2.637187 0.022058 0.192009 1.212285 8.226761 -13.063122 -0.221327 -1.310262 -0.563402 10.879892 -7.930468 -53.554881 -0.338392 -32.182516 0.864195 0.000000 0.000000 0.000000 2.577556 -0.082624 0.298511 1.725087 -8.008093 12.475495 0.807911 1.955200 -2.269254 1.120758 18.213003 62.230304 1.997854 23.556785 0.451036 0.000000 0.000000 0.000000 
